<?xml version="1.0" encoding="UTF-8"?>
<svg width="32px" height="32px" viewBox="0 0 32 32" version="1.1" xmlns="http://www.w3.org/2000/svg" xmlns:xlink="http://www.w3.org/1999/xlink">
    <!-- Generator: Sketch 52 (66869) - http://www.bohemiancoding.com/sketch -->
    <title>Arti</title>
    <desc>Created with Sketch.</desc>
    <defs>
        <path d="M20.24942,10.74746 L20.25286,10.74746 L20.25286,20.127722 C20.25286,20.403868 20.029,20.627728 19.75286,20.627728 C19.66114,20.627728 19.5712,20.602504 19.49286,20.554815 C18.18419,19.75815 17.37092,19.244715 17.05307,19.01451 C16.60035,18.686626 16.06455,18.746737 15.46084,19.053816 C15.3226,19.138948 15.18214,19.220829 15.03958,19.299353 C15.0288,19.306359 15.018,19.313427 15.00718,19.320557 C15.00702,19.319502 15.00685,19.318447 15.00668,19.317393 C13.57701,20.097887 11.93703,20.541486 10.19345,20.541486 C4.63779,20.541486 0.13404,16.03774 0.13404,10.48208 C0.13404,4.92642 4.63779,0.42267 10.19345,0.42267 C15.74911,0.42267 20.25286,4.92642 20.25286,10.48208 C20.25286,10.57081 20.25171,10.65928 20.24942,10.74746 Z" id="path-1"></path>
    </defs>
    <g id="Arti" stroke="none" stroke-width="1" fill="none" fill-rule="evenodd">
        <g id="Arti-(MVP)" transform="translate(2.000000, 1.450133)">
            <g id="Group-5" stroke-linecap="round" stroke-linejoin="round" stroke-width="3">
                <path d="M28.4453,12.28833 C27.43901,6.272787 22.692093,1.524419 16.67728,0.51597" id="Stroke-1" stroke="#E23373"></path>
                <path d="M0.077501,16.74526 C0.5339214,19.904584 1.882917,22.775798 4.046281,24.918879 C6.599178,27.44784 10.232661,28.98041 14.098261,29.02994 C14.130621,29.03035 16.429271,29.03034 18.646711,29.03022 C20.710671,29.03012 22.704281,29.02994 22.734491,29.02994" id="Stroke-2" stroke="#80BC03"></path>
                <path d="M11.914726,0.51262 C6.013433,1.4934129 1.328843,6.073556 0.193026,11.92097" id="Stroke-3" stroke="#ED0B14"></path>
                <path d="M28.44529,17.07889 L28.44529,28.99553" id="Stroke-4" stroke="#0078C8"></path>
            </g>
            <g id="Group-8" transform="translate(4.000000, 4.000000)">
                <mask id="mask-2" fill="white">
                    <use xlink:href="#path-1"></use>
                </mask>
                <g id="Clip-7"></g>
                <polygon id="Fill-6" fill="#004A8F" mask="url(#mask-2)" points="-4.86596 25.627728 25.25286 25.627728 25.25286 -4.577332 -4.86596 -4.577332"></polygon>
            </g>
        </g>
    </g>
</svg>